# xmcd
#
# Track frame offsets: 
#        150
#        17845
#        31672
#        52663
#        78785
#        101445
#        124992
#        144429
#        164698
#        179472
#        196489
#        222831
#        241853
#        267650
#        286435
#        304168
#        336431
#
# Disc length: 4748 seconds
#
# Revision: 2
# Processed by: cddbd v1.5.2PL0 Copyright (c) Steve Scherf et al.
# Submitted via: ExactAudioCopy v0.99pb5
#
DISCID=f3128a11
DTITLE=Mojo Blues Band - Get Out Blues!
DYEAR=2004
DGENRE=Blues
TTITLE0=Ain't It Good To Know, Baby
TTITLE1=You Done A Number On Me
TTITLE2=I'm Down In The Dumps
TTITLE3=Don't Talk About The Blues
TTITLE4=Masada
TTITLE5=I Don't Care
TTITLE6=When I'm Drinking
TTITLE7=Get Out Blues
TTITLE8=Eager Beaver
TTITLE9=Cold Hearted Woman
TTITLE10=Danger Zone
TTITLE11=The Mayor's Players
TTITLE12=Wintertime Is Coming
TTITLE13=Snake Of A Woman
TTITLE14=Out In The Boondocks
TTITLE15=Superstitious Blues
TTITLE16=I'm Down In the Dumps
EXTD=
EXTT0=
EXTT1=
EXTT2=
EXTT3=
EXTT4=
EXTT5=
EXTT6=
EXTT7=
EXTT8=
EXTT9=
EXTT10=
EXTT11=
EXTT12=
EXTT13=
EXTT14=
EXTT15=
EXTT16=
PLAYORDER=
